<?xml version="1.0" encoding="UTF-8" standalone="no"?>
<!DOCTYPE svg PUBLIC "-//W3C//DTD SVG 1.1//EN" "http://www.w3.org/Graphics/SVG/1.1/DTD/svg11.dtd">
<svg width="100%" height="100%" viewBox="0 0 200 50" version="1.1" xmlns="http://www.w3.org/2000/svg" xmlns:xlink="http://www.w3.org/1999/xlink" xml:space="preserve" xmlns:serif="http://www.serif.com/" style="fill-rule:evenodd;clip-rule:evenodd;stroke-linejoin:round;stroke-miterlimit:2;">
    <g id="Artboard1" transform="matrix(1,0,0,0.625,0,0)">
        <rect x="0" y="0" width="200" height="80" style="fill:none;"/>
        <g transform="matrix(1,0,0,1,0,0.272)" style="fill:#0d9;">
            <g transform="matrix(0.797137,0,0,1.27542,46.9103,-7.1652)">
                <g transform="matrix(30.1077,0,0,30.1077,16.7465,36.5285)">
                    <path d="M0.115,-0L0.115,-0.538C0.115,-0.552 0.115,-0.567 0.116,-0.585C0.117,-0.602 0.119,-0.619 0.124,-0.637C0.129,-0.655 0.138,-0.671 0.151,-0.685C0.168,-0.704 0.186,-0.716 0.205,-0.723C0.225,-0.73 0.244,-0.734 0.262,-0.734C0.28,-0.735 0.296,-0.735 0.309,-0.735L0.376,-0.735L0.376,-0.625L0.314,-0.625C0.293,-0.625 0.277,-0.62 0.267,-0.609C0.256,-0.598 0.251,-0.585 0.251,-0.57L0.251,-0L0.115,-0ZM0.03,-0.435L0.03,-0.54L0.376,-0.54L0.376,-0.435L0.03,-0.435Z" style="fill-rule:nonzero;"/>
                </g>
                <g transform="matrix(30.1077,0,0,30.1077,26.8627,36.5285)">
                    <path d="M0.281,0.015C0.213,0.015 0.158,-0 0.116,-0.031C0.074,-0.062 0.049,-0.106 0.04,-0.162L0.179,-0.183C0.185,-0.158 0.197,-0.138 0.217,-0.124C0.236,-0.109 0.261,-0.102 0.291,-0.102C0.316,-0.102 0.335,-0.107 0.348,-0.116C0.361,-0.126 0.368,-0.139 0.368,-0.156C0.368,-0.167 0.365,-0.175 0.36,-0.182C0.355,-0.188 0.343,-0.195 0.324,-0.201C0.306,-0.207 0.277,-0.216 0.238,-0.226C0.194,-0.237 0.159,-0.25 0.133,-0.264C0.106,-0.278 0.087,-0.295 0.076,-0.314C0.064,-0.334 0.058,-0.357 0.058,-0.385C0.058,-0.42 0.067,-0.45 0.085,-0.475C0.102,-0.501 0.127,-0.52 0.159,-0.534C0.191,-0.548 0.229,-0.555 0.273,-0.555C0.315,-0.555 0.353,-0.549 0.386,-0.536C0.418,-0.523 0.445,-0.504 0.465,-0.48C0.485,-0.456 0.497,-0.428 0.502,-0.395L0.363,-0.37C0.361,-0.39 0.352,-0.406 0.337,-0.418C0.322,-0.429 0.302,-0.436 0.276,-0.438C0.251,-0.44 0.231,-0.436 0.216,-0.428C0.201,-0.42 0.193,-0.408 0.193,-0.392C0.193,-0.383 0.196,-0.375 0.203,-0.369C0.209,-0.362 0.223,-0.356 0.243,-0.349C0.264,-0.342 0.295,-0.334 0.337,-0.323C0.378,-0.312 0.411,-0.3 0.436,-0.286C0.461,-0.272 0.479,-0.255 0.49,-0.235C0.501,-0.215 0.507,-0.191 0.507,-0.163C0.507,-0.108 0.487,-0.064 0.447,-0.033C0.407,-0.001 0.352,0.015 0.281,0.015Z" style="fill-rule:nonzero;"/>
                </g>
                <g transform="matrix(30.1077,0,0,30.1077,41.8263,36.5285)">
                    <path d="M0.301,0.255C0.27,0.255 0.241,0.25 0.214,0.24C0.186,0.23 0.161,0.217 0.139,0.199C0.117,0.182 0.1,0.161 0.086,0.138L0.212,0.077C0.221,0.093 0.233,0.105 0.249,0.113C0.265,0.122 0.283,0.126 0.302,0.126C0.322,0.126 0.342,0.123 0.36,0.116C0.378,0.109 0.392,0.099 0.403,0.085C0.414,0.072 0.419,0.055 0.418,0.035L0.418,-0.122L0.435,-0.122L0.435,-0.54L0.554,-0.54L0.554,0.037C0.554,0.05 0.553,0.063 0.552,0.075C0.551,0.087 0.549,0.098 0.546,0.11C0.537,0.143 0.521,0.17 0.498,0.191C0.474,0.213 0.446,0.229 0.411,0.239C0.378,0.25 0.341,0.255 0.301,0.255ZM0.289,0.015C0.239,0.015 0.196,0.002 0.159,-0.023C0.121,-0.048 0.092,-0.082 0.071,-0.125C0.05,-0.168 0.04,-0.216 0.04,-0.27C0.04,-0.325 0.051,-0.374 0.072,-0.417C0.093,-0.46 0.123,-0.493 0.161,-0.518C0.199,-0.543 0.244,-0.555 0.296,-0.555C0.347,-0.555 0.391,-0.543 0.426,-0.518C0.461,-0.493 0.487,-0.459 0.505,-0.416C0.523,-0.373 0.532,-0.324 0.532,-0.27C0.532,-0.216 0.523,-0.168 0.505,-0.125C0.487,-0.082 0.46,-0.048 0.424,-0.023C0.388,0.002 0.343,0.015 0.289,0.015ZM0.311,-0.106C0.341,-0.106 0.366,-0.113 0.384,-0.127C0.402,-0.14 0.415,-0.159 0.423,-0.184C0.431,-0.209 0.435,-0.237 0.435,-0.27C0.435,-0.303 0.431,-0.331 0.423,-0.356C0.415,-0.381 0.402,-0.4 0.385,-0.413C0.367,-0.427 0.344,-0.434 0.316,-0.434C0.286,-0.434 0.261,-0.427 0.241,-0.412C0.222,-0.397 0.207,-0.377 0.198,-0.352C0.189,-0.327 0.184,-0.3 0.184,-0.27C0.184,-0.24 0.189,-0.212 0.198,-0.187C0.206,-0.162 0.22,-0.143 0.239,-0.128C0.258,-0.113 0.282,-0.106 0.311,-0.106Z" style="fill-rule:nonzero;"/>
                </g>
                <g transform="matrix(30.1077,0,0,30.1077,59.1081,36.5285)">
                    <path d="M0.294,0.015C0.24,0.015 0.194,0.003 0.156,-0.021C0.118,-0.046 0.09,-0.079 0.07,-0.122C0.051,-0.165 0.041,-0.214 0.04,-0.27C0.041,-0.327 0.051,-0.376 0.071,-0.419C0.091,-0.462 0.12,-0.495 0.158,-0.519C0.195,-0.543 0.241,-0.555 0.295,-0.555C0.349,-0.555 0.397,-0.542 0.437,-0.515C0.478,-0.488 0.505,-0.452 0.521,-0.406L0.449,-0.383C0.436,-0.415 0.416,-0.44 0.388,-0.458C0.361,-0.476 0.329,-0.485 0.294,-0.485C0.254,-0.485 0.222,-0.475 0.196,-0.457C0.17,-0.439 0.15,-0.414 0.138,-0.382C0.125,-0.349 0.118,-0.312 0.118,-0.27C0.119,-0.205 0.134,-0.153 0.163,-0.114C0.192,-0.075 0.236,-0.056 0.294,-0.056C0.331,-0.056 0.362,-0.064 0.388,-0.081C0.414,-0.098 0.433,-0.122 0.447,-0.155L0.521,-0.133C0.5,-0.085 0.471,-0.048 0.433,-0.023C0.394,0.002 0.348,0.015 0.294,0.015Z" style="fill-opacity:0.5;fill-rule:nonzero;"/>
                </g>
                <g transform="matrix(30.1077,0,0,30.1077,73.8158,36.5285)">
                    <path d="M0.296,0.015C0.242,0.015 0.196,0.003 0.158,-0.021C0.12,-0.046 0.091,-0.08 0.07,-0.123C0.05,-0.166 0.04,-0.215 0.04,-0.271C0.04,-0.327 0.05,-0.377 0.071,-0.42C0.092,-0.462 0.121,-0.495 0.159,-0.519C0.197,-0.543 0.243,-0.555 0.296,-0.555C0.349,-0.555 0.396,-0.543 0.434,-0.519C0.472,-0.495 0.501,-0.461 0.521,-0.418C0.541,-0.375 0.552,-0.326 0.552,-0.271C0.552,-0.214 0.541,-0.164 0.521,-0.121C0.501,-0.078 0.471,-0.045 0.433,-0.021C0.395,0.003 0.349,0.015 0.296,0.015ZM0.296,-0.056C0.356,-0.056 0.4,-0.075 0.43,-0.115C0.459,-0.155 0.473,-0.207 0.473,-0.271C0.473,-0.336 0.459,-0.388 0.429,-0.427C0.4,-0.465 0.355,-0.485 0.296,-0.485C0.255,-0.485 0.222,-0.475 0.196,-0.457C0.17,-0.439 0.15,-0.414 0.137,-0.382C0.124,-0.35 0.118,-0.313 0.118,-0.271C0.118,-0.205 0.133,-0.153 0.163,-0.114C0.193,-0.075 0.237,-0.056 0.296,-0.056Z" style="fill-opacity:0.5;fill-rule:nonzero;"/>
                </g>
                <g transform="matrix(30.1077,0,0,30.1077,90.1191,36.5285)">
                    <path d="M0.07,-0L0.07,-0.54L0.136,-0.54L0.136,-0.41L0.123,-0.427C0.129,-0.443 0.137,-0.458 0.147,-0.471C0.156,-0.485 0.167,-0.496 0.178,-0.504C0.192,-0.517 0.208,-0.526 0.227,-0.533C0.246,-0.539 0.265,-0.543 0.283,-0.544C0.303,-0.545 0.32,-0.544 0.336,-0.54L0.336,-0.471C0.316,-0.476 0.294,-0.477 0.271,-0.474C0.248,-0.472 0.226,-0.463 0.206,-0.447C0.189,-0.433 0.175,-0.416 0.166,-0.396C0.157,-0.377 0.151,-0.356 0.148,-0.334C0.145,-0.312 0.143,-0.291 0.143,-0.27L0.143,-0L0.07,-0Z" style="fill-opacity:0.5;fill-rule:nonzero;"/>
                </g>
                <g transform="matrix(30.1077,0,0,30.1077,99.1665,36.5285)">
                    <path d="M0.299,0.015C0.246,0.015 0.2,0.003 0.162,-0.02C0.123,-0.043 0.093,-0.076 0.072,-0.118C0.051,-0.161 0.04,-0.211 0.04,-0.268C0.04,-0.327 0.051,-0.378 0.071,-0.421C0.093,-0.464 0.122,-0.497 0.16,-0.52C0.198,-0.543 0.244,-0.555 0.296,-0.555C0.349,-0.555 0.394,-0.543 0.432,-0.518C0.47,-0.494 0.498,-0.459 0.518,-0.413C0.537,-0.367 0.546,-0.313 0.544,-0.25L0.469,-0.25L0.469,-0.276C0.468,-0.345 0.453,-0.398 0.424,-0.434C0.395,-0.47 0.353,-0.488 0.298,-0.488C0.239,-0.488 0.195,-0.469 0.164,-0.431C0.133,-0.393 0.118,-0.34 0.118,-0.27C0.118,-0.202 0.133,-0.149 0.164,-0.112C0.195,-0.074 0.239,-0.056 0.296,-0.056C0.334,-0.056 0.368,-0.064 0.397,-0.082C0.426,-0.1 0.448,-0.126 0.465,-0.16L0.534,-0.133C0.512,-0.086 0.481,-0.05 0.439,-0.024C0.398,0.002 0.351,0.015 0.299,0.015ZM0.092,-0.25L0.092,-0.311L0.504,-0.311L0.504,-0.25L0.092,-0.25Z" style="fill-opacity:0.5;fill-rule:nonzero;"/>
                </g>
            </g>
            <g transform="matrix(1,0,0,1.6,-62.3137,5.95534)">
                <g transform="matrix(10,0,0,10,98.5837,36.3879)">
                    <path d="M0.124,-0L0.124,-0.58C0.124,-0.594 0.124,-0.608 0.126,-0.622C0.127,-0.635 0.13,-0.648 0.135,-0.661C0.14,-0.673 0.147,-0.685 0.157,-0.696C0.168,-0.708 0.18,-0.716 0.193,-0.722C0.206,-0.727 0.22,-0.731 0.234,-0.733C0.248,-0.734 0.262,-0.735 0.276,-0.735L0.344,-0.735L0.344,-0.673L0.281,-0.673C0.253,-0.673 0.232,-0.666 0.218,-0.653C0.204,-0.639 0.197,-0.617 0.197,-0.588L0.197,-0L0.124,-0ZM0.03,-0.477L0.03,-0.54L0.344,-0.54L0.344,-0.477L0.03,-0.477Z" style="fill-opacity:0.5;fill-rule:nonzero;"/>
                </g>
                <g transform="matrix(10,0,0,10,102.129,36.3879)">
                    <path d="M0.07,-0L0.07,-0.54L0.136,-0.54L0.136,-0.41L0.123,-0.427C0.129,-0.443 0.137,-0.458 0.147,-0.471C0.156,-0.485 0.167,-0.496 0.178,-0.504C0.192,-0.517 0.208,-0.526 0.227,-0.533C0.246,-0.539 0.265,-0.543 0.283,-0.544C0.303,-0.545 0.32,-0.544 0.336,-0.54L0.336,-0.471C0.316,-0.476 0.294,-0.477 0.271,-0.474C0.248,-0.472 0.226,-0.463 0.206,-0.447C0.189,-0.433 0.175,-0.416 0.166,-0.396C0.157,-0.377 0.151,-0.356 0.148,-0.334C0.145,-0.312 0.143,-0.291 0.143,-0.27L0.143,-0L0.07,-0Z" style="fill-opacity:0.5;fill-rule:nonzero;"/>
                </g>
                <g transform="matrix(10,0,0,10,105.634,36.3879)">
                    <path d="M0.299,0.015C0.246,0.015 0.2,0.003 0.162,-0.02C0.123,-0.043 0.093,-0.076 0.072,-0.118C0.051,-0.161 0.04,-0.211 0.04,-0.268C0.04,-0.327 0.051,-0.378 0.071,-0.421C0.093,-0.464 0.122,-0.497 0.16,-0.52C0.198,-0.543 0.244,-0.555 0.296,-0.555C0.349,-0.555 0.394,-0.543 0.432,-0.518C0.47,-0.494 0.498,-0.459 0.518,-0.413C0.537,-0.367 0.546,-0.313 0.544,-0.25L0.469,-0.25L0.469,-0.276C0.468,-0.345 0.453,-0.398 0.424,-0.434C0.395,-0.47 0.353,-0.488 0.298,-0.488C0.239,-0.488 0.195,-0.469 0.164,-0.431C0.133,-0.393 0.118,-0.34 0.118,-0.27C0.118,-0.202 0.133,-0.149 0.164,-0.112C0.195,-0.074 0.239,-0.056 0.296,-0.056C0.334,-0.056 0.368,-0.064 0.397,-0.082C0.426,-0.1 0.448,-0.126 0.465,-0.16L0.534,-0.133C0.512,-0.086 0.481,-0.05 0.439,-0.024C0.398,0.002 0.351,0.015 0.299,0.015ZM0.092,-0.25L0.092,-0.311L0.504,-0.311L0.504,-0.25L0.092,-0.25Z" style="fill-opacity:0.5;fill-rule:nonzero;"/>
                </g>
                <g transform="matrix(10,0,0,10,111.479,36.3879)">
                    <path d="M0.299,0.015C0.246,0.015 0.2,0.003 0.162,-0.02C0.123,-0.043 0.093,-0.076 0.072,-0.118C0.051,-0.161 0.04,-0.211 0.04,-0.268C0.04,-0.327 0.051,-0.378 0.071,-0.421C0.093,-0.464 0.122,-0.497 0.16,-0.52C0.198,-0.543 0.244,-0.555 0.296,-0.555C0.349,-0.555 0.394,-0.543 0.432,-0.518C0.47,-0.494 0.498,-0.459 0.518,-0.413C0.537,-0.367 0.546,-0.313 0.544,-0.25L0.469,-0.25L0.469,-0.276C0.468,-0.345 0.453,-0.398 0.424,-0.434C0.395,-0.47 0.353,-0.488 0.298,-0.488C0.239,-0.488 0.195,-0.469 0.164,-0.431C0.133,-0.393 0.118,-0.34 0.118,-0.27C0.118,-0.202 0.133,-0.149 0.164,-0.112C0.195,-0.074 0.239,-0.056 0.296,-0.056C0.334,-0.056 0.368,-0.064 0.397,-0.082C0.426,-0.1 0.448,-0.126 0.465,-0.16L0.534,-0.133C0.512,-0.086 0.481,-0.05 0.439,-0.024C0.398,0.002 0.351,0.015 0.299,0.015ZM0.092,-0.25L0.092,-0.311L0.504,-0.311L0.504,-0.25L0.092,-0.25Z" style="fill-opacity:0.5;fill-rule:nonzero;"/>
                </g>
                <g transform="matrix(10,0,0,10,117.324,36.3879)">
                    <path d="M0.272,0.015C0.208,0.014 0.156,0.001 0.115,-0.027C0.074,-0.054 0.049,-0.092 0.04,-0.141L0.115,-0.153C0.123,-0.122 0.141,-0.098 0.17,-0.08C0.198,-0.062 0.234,-0.053 0.276,-0.053C0.317,-0.053 0.349,-0.061 0.373,-0.078C0.396,-0.095 0.408,-0.119 0.408,-0.149C0.408,-0.165 0.404,-0.179 0.397,-0.189C0.389,-0.2 0.374,-0.21 0.351,-0.219C0.328,-0.228 0.294,-0.238 0.248,-0.251C0.199,-0.264 0.161,-0.277 0.133,-0.291C0.105,-0.304 0.086,-0.319 0.074,-0.337C0.062,-0.354 0.057,-0.376 0.057,-0.401C0.057,-0.432 0.065,-0.459 0.083,-0.482C0.1,-0.505 0.124,-0.523 0.155,-0.536C0.185,-0.549 0.221,-0.555 0.262,-0.555C0.302,-0.555 0.339,-0.548 0.371,-0.535C0.403,-0.522 0.429,-0.504 0.449,-0.48C0.468,-0.456 0.48,-0.429 0.484,-0.398L0.408,-0.384C0.404,-0.416 0.388,-0.441 0.361,-0.459C0.335,-0.478 0.301,-0.487 0.261,-0.488C0.222,-0.489 0.191,-0.482 0.167,-0.466C0.143,-0.451 0.131,-0.43 0.131,-0.405C0.131,-0.39 0.135,-0.378 0.144,-0.368C0.153,-0.358 0.168,-0.348 0.191,-0.339C0.214,-0.33 0.247,-0.32 0.289,-0.31C0.339,-0.297 0.378,-0.283 0.406,-0.27C0.434,-0.256 0.455,-0.239 0.467,-0.22C0.478,-0.201 0.485,-0.178 0.485,-0.15C0.485,-0.099 0.466,-0.058 0.428,-0.029C0.39,-0 0.338,0.014 0.272,0.015Z" style="fill-opacity:0.5;fill-rule:nonzero;"/>
                </g>
                <g transform="matrix(10,0,0,10,122.574,36.3879)">
                    <path d="M0.364,-0C0.334,0.006 0.304,0.009 0.274,0.007C0.245,0.006 0.218,-0 0.195,-0.012C0.172,-0.023 0.155,-0.041 0.142,-0.065C0.133,-0.085 0.128,-0.105 0.127,-0.125C0.126,-0.146 0.126,-0.169 0.126,-0.196L0.126,-0.69L0.199,-0.69L0.199,-0.199C0.199,-0.176 0.199,-0.157 0.199,-0.142C0.2,-0.127 0.203,-0.113 0.21,-0.102C0.222,-0.079 0.241,-0.066 0.267,-0.062C0.293,-0.057 0.325,-0.058 0.364,-0.065L0.364,-0ZM0.01,-0.477L0.01,-0.54L0.364,-0.54L0.364,-0.477L0.01,-0.477Z" style="fill-opacity:0.5;fill-rule:nonzero;"/>
                </g>
                <g transform="matrix(10,0,0,10,126.429,36.3879)">
                    <path d="M0.147,0.24L0.252,-0.043L0.253,0.041L0.017,-0.54L0.095,-0.54L0.289,-0.055L0.257,-0.055L0.436,-0.54L0.51,-0.54L0.221,0.24L0.147,0.24Z" style="fill-opacity:0.5;fill-rule:nonzero;"/>
                </g>
                <g transform="matrix(10,0,0,10,131.704,36.3879)">
                    <rect x="0.08" y="-0.735" width="0.074" height="0.735" style="fill-opacity:0.5;fill-rule:nonzero;"/>
                </g>
                <g transform="matrix(10,0,0,10,134.039,36.3879)">
                    <path d="M0.299,0.015C0.246,0.015 0.2,0.003 0.162,-0.02C0.123,-0.043 0.093,-0.076 0.072,-0.118C0.051,-0.161 0.04,-0.211 0.04,-0.268C0.04,-0.327 0.051,-0.378 0.071,-0.421C0.093,-0.464 0.122,-0.497 0.16,-0.52C0.198,-0.543 0.244,-0.555 0.296,-0.555C0.349,-0.555 0.394,-0.543 0.432,-0.518C0.47,-0.494 0.498,-0.459 0.518,-0.413C0.537,-0.367 0.546,-0.313 0.544,-0.25L0.469,-0.25L0.469,-0.276C0.468,-0.345 0.453,-0.398 0.424,-0.434C0.395,-0.47 0.353,-0.488 0.298,-0.488C0.239,-0.488 0.195,-0.469 0.164,-0.431C0.133,-0.393 0.118,-0.34 0.118,-0.27C0.118,-0.202 0.133,-0.149 0.164,-0.112C0.195,-0.074 0.239,-0.056 0.296,-0.056C0.334,-0.056 0.368,-0.064 0.397,-0.082C0.426,-0.1 0.448,-0.126 0.465,-0.16L0.534,-0.133C0.512,-0.086 0.481,-0.05 0.439,-0.024C0.398,0.002 0.351,0.015 0.299,0.015ZM0.092,-0.25L0.092,-0.311L0.504,-0.311L0.504,-0.25L0.092,-0.25Z" style="fill-opacity:0.5;fill-rule:nonzero;"/>
                </g>
                <g transform="matrix(10,0,0,10,141.884,36.3879)">
                    <path d="M0.284,0.255C0.257,0.255 0.23,0.251 0.203,0.243C0.176,0.235 0.151,0.222 0.129,0.204C0.106,0.187 0.087,0.164 0.071,0.136L0.138,0.099C0.153,0.129 0.174,0.151 0.201,0.164C0.228,0.177 0.256,0.183 0.284,0.184C0.324,0.183 0.355,0.176 0.379,0.162C0.403,0.147 0.421,0.126 0.432,0.097C0.443,0.069 0.448,0.034 0.448,-0.009L0.448,-0.153L0.457,-0.153L0.457,-0.54L0.522,-0.54L0.522,-0.008C0.522,0.008 0.522,0.023 0.521,0.037C0.52,0.051 0.518,0.065 0.516,0.079C0.51,0.119 0.497,0.152 0.477,0.178C0.457,0.204 0.431,0.223 0.399,0.236C0.367,0.249 0.329,0.255 0.284,0.255ZM0.28,0.015C0.229,0.015 0.186,0.002 0.151,-0.023C0.115,-0.048 0.087,-0.082 0.069,-0.125C0.05,-0.168 0.04,-0.217 0.04,-0.271C0.04,-0.324 0.049,-0.373 0.068,-0.416C0.087,-0.459 0.114,-0.493 0.15,-0.518C0.185,-0.543 0.227,-0.555 0.277,-0.555C0.327,-0.555 0.37,-0.543 0.405,-0.518C0.439,-0.493 0.465,-0.46 0.483,-0.417C0.501,-0.374 0.51,-0.325 0.51,-0.271C0.51,-0.217 0.501,-0.168 0.484,-0.125C0.466,-0.082 0.44,-0.048 0.406,-0.023C0.371,0.002 0.329,0.015 0.28,0.015ZM0.287,-0.054C0.325,-0.054 0.357,-0.063 0.382,-0.082C0.407,-0.1 0.426,-0.126 0.438,-0.159C0.45,-0.192 0.457,-0.229 0.457,-0.271C0.457,-0.313 0.45,-0.35 0.438,-0.383C0.426,-0.415 0.407,-0.441 0.382,-0.459C0.357,-0.477 0.326,-0.487 0.289,-0.487C0.25,-0.487 0.218,-0.477 0.193,-0.458C0.167,-0.439 0.148,-0.413 0.136,-0.381C0.124,-0.348 0.118,-0.311 0.118,-0.271C0.118,-0.23 0.124,-0.193 0.137,-0.16C0.149,-0.127 0.168,-0.101 0.193,-0.082C0.218,-0.063 0.249,-0.054 0.287,-0.054Z" style="fill-opacity:0.5;fill-rule:nonzero;"/>
                </g>
                <g transform="matrix(10,0,0,10,147.804,36.3879)">
                    <path d="M0.225,0.015C0.184,0.015 0.15,0.008 0.122,-0.007C0.095,-0.022 0.074,-0.041 0.061,-0.066C0.047,-0.09 0.04,-0.116 0.04,-0.145C0.04,-0.174 0.046,-0.199 0.058,-0.22C0.07,-0.241 0.086,-0.258 0.106,-0.272C0.127,-0.285 0.151,-0.295 0.178,-0.302C0.205,-0.309 0.235,-0.315 0.268,-0.32C0.301,-0.325 0.334,-0.329 0.366,-0.333C0.398,-0.337 0.426,-0.341 0.45,-0.344L0.424,-0.329C0.425,-0.382 0.414,-0.421 0.393,-0.447C0.371,-0.473 0.333,-0.486 0.28,-0.486C0.243,-0.486 0.211,-0.477 0.186,-0.461C0.16,-0.444 0.142,-0.418 0.132,-0.382L0.061,-0.403C0.073,-0.451 0.098,-0.488 0.135,-0.515C0.172,-0.542 0.221,-0.555 0.281,-0.555C0.33,-0.555 0.372,-0.546 0.406,-0.527C0.441,-0.509 0.465,-0.482 0.48,-0.447C0.486,-0.431 0.491,-0.414 0.493,-0.395C0.495,-0.375 0.496,-0.356 0.496,-0.336L0.496,-0L0.43,-0L0.43,-0.136L0.449,-0.128C0.431,-0.081 0.402,-0.046 0.364,-0.021C0.325,0.003 0.279,0.015 0.225,0.015ZM0.233,-0.049C0.267,-0.049 0.297,-0.055 0.323,-0.067C0.349,-0.079 0.369,-0.096 0.385,-0.118C0.401,-0.139 0.411,-0.164 0.416,-0.191C0.42,-0.208 0.422,-0.227 0.422,-0.248C0.422,-0.269 0.423,-0.284 0.423,-0.295L0.451,-0.28C0.426,-0.277 0.398,-0.273 0.369,-0.27C0.34,-0.267 0.311,-0.263 0.283,-0.259C0.255,-0.254 0.23,-0.249 0.207,-0.243C0.192,-0.239 0.177,-0.233 0.163,-0.225C0.148,-0.217 0.136,-0.206 0.127,-0.194C0.118,-0.181 0.114,-0.164 0.114,-0.145C0.114,-0.129 0.117,-0.114 0.125,-0.1C0.133,-0.085 0.146,-0.073 0.163,-0.063C0.181,-0.053 0.204,-0.049 0.233,-0.049Z" style="fill-opacity:0.5;fill-rule:nonzero;"/>
                </g>
                <g transform="matrix(10,0,0,10,153.359,36.3879)">
                    <path d="M0.714,-0L0.715,-0.355C0.715,-0.396 0.703,-0.429 0.68,-0.453C0.657,-0.477 0.627,-0.489 0.592,-0.489C0.571,-0.489 0.551,-0.484 0.532,-0.474C0.513,-0.465 0.497,-0.45 0.484,-0.43C0.472,-0.409 0.466,-0.382 0.466,-0.348L0.422,-0.361C0.421,-0.4 0.429,-0.434 0.445,-0.463C0.461,-0.492 0.483,-0.514 0.512,-0.53C0.54,-0.546 0.573,-0.555 0.609,-0.555C0.663,-0.555 0.706,-0.538 0.739,-0.504C0.772,-0.471 0.788,-0.426 0.788,-0.369L0.788,-0L0.714,-0ZM0.07,-0L0.07,-0.54L0.136,-0.54L0.136,-0.407L0.143,-0.407L0.143,-0L0.07,-0ZM0.393,-0L0.393,-0.349C0.393,-0.393 0.382,-0.426 0.359,-0.451C0.336,-0.476 0.306,-0.489 0.269,-0.489C0.231,-0.489 0.201,-0.476 0.178,-0.45C0.155,-0.425 0.143,-0.391 0.143,-0.348L0.1,-0.373C0.1,-0.407 0.108,-0.438 0.124,-0.466C0.14,-0.493 0.163,-0.515 0.191,-0.531C0.219,-0.547 0.252,-0.555 0.288,-0.555C0.322,-0.555 0.352,-0.547 0.379,-0.533C0.406,-0.518 0.427,-0.497 0.443,-0.469C0.458,-0.441 0.466,-0.406 0.466,-0.367L0.465,-0L0.393,-0Z" style="fill-opacity:0.5;fill-rule:nonzero;"/>
                </g>
                <g transform="matrix(10,0,0,10,161.804,36.3879)">
                    <path d="M0.299,0.015C0.246,0.015 0.2,0.003 0.162,-0.02C0.123,-0.043 0.093,-0.076 0.072,-0.118C0.051,-0.161 0.04,-0.211 0.04,-0.268C0.04,-0.327 0.051,-0.378 0.071,-0.421C0.093,-0.464 0.122,-0.497 0.16,-0.52C0.198,-0.543 0.244,-0.555 0.296,-0.555C0.349,-0.555 0.394,-0.543 0.432,-0.518C0.47,-0.494 0.498,-0.459 0.518,-0.413C0.537,-0.367 0.546,-0.313 0.544,-0.25L0.469,-0.25L0.469,-0.276C0.468,-0.345 0.453,-0.398 0.424,-0.434C0.395,-0.47 0.353,-0.488 0.298,-0.488C0.239,-0.488 0.195,-0.469 0.164,-0.431C0.133,-0.393 0.118,-0.34 0.118,-0.27C0.118,-0.202 0.133,-0.149 0.164,-0.112C0.195,-0.074 0.239,-0.056 0.296,-0.056C0.334,-0.056 0.368,-0.064 0.397,-0.082C0.426,-0.1 0.448,-0.126 0.465,-0.16L0.534,-0.133C0.512,-0.086 0.481,-0.05 0.439,-0.024C0.398,0.002 0.351,0.015 0.299,0.015ZM0.092,-0.25L0.092,-0.311L0.504,-0.311L0.504,-0.25L0.092,-0.25Z" style="fill-opacity:0.5;fill-rule:nonzero;"/>
                </g>
                <g transform="matrix(10,0,0,10,167.649,36.3879)">
                    <path d="M0.272,0.015C0.208,0.014 0.156,0.001 0.115,-0.027C0.074,-0.054 0.049,-0.092 0.04,-0.141L0.115,-0.153C0.123,-0.122 0.141,-0.098 0.17,-0.08C0.198,-0.062 0.234,-0.053 0.276,-0.053C0.317,-0.053 0.349,-0.061 0.373,-0.078C0.396,-0.095 0.408,-0.119 0.408,-0.149C0.408,-0.165 0.404,-0.179 0.397,-0.189C0.389,-0.2 0.374,-0.21 0.351,-0.219C0.328,-0.228 0.294,-0.238 0.248,-0.251C0.199,-0.264 0.161,-0.277 0.133,-0.291C0.105,-0.304 0.086,-0.319 0.074,-0.337C0.062,-0.354 0.057,-0.376 0.057,-0.401C0.057,-0.432 0.065,-0.459 0.083,-0.482C0.1,-0.505 0.124,-0.523 0.155,-0.536C0.185,-0.549 0.221,-0.555 0.262,-0.555C0.302,-0.555 0.339,-0.548 0.371,-0.535C0.403,-0.522 0.429,-0.504 0.449,-0.48C0.468,-0.456 0.48,-0.429 0.484,-0.398L0.408,-0.384C0.404,-0.416 0.388,-0.441 0.361,-0.459C0.335,-0.478 0.301,-0.487 0.261,-0.488C0.222,-0.489 0.191,-0.482 0.167,-0.466C0.143,-0.451 0.131,-0.43 0.131,-0.405C0.131,-0.39 0.135,-0.378 0.144,-0.368C0.153,-0.358 0.168,-0.348 0.191,-0.339C0.214,-0.33 0.247,-0.32 0.289,-0.31C0.339,-0.297 0.378,-0.283 0.406,-0.27C0.434,-0.256 0.455,-0.239 0.467,-0.22C0.478,-0.201 0.485,-0.178 0.485,-0.15C0.485,-0.099 0.466,-0.058 0.428,-0.029C0.39,-0 0.338,0.014 0.272,0.015Z" style="fill-opacity:0.5;fill-rule:nonzero;"/>
                </g>
                <g transform="matrix(10,0,0,10,174.899,36.3879)">
                    <path d="M0.294,0.015C0.24,0.015 0.194,0.003 0.156,-0.021C0.118,-0.046 0.09,-0.079 0.07,-0.122C0.051,-0.165 0.041,-0.214 0.04,-0.27C0.041,-0.327 0.051,-0.376 0.071,-0.419C0.091,-0.462 0.12,-0.495 0.158,-0.519C0.195,-0.543 0.241,-0.555 0.295,-0.555C0.349,-0.555 0.397,-0.542 0.437,-0.515C0.478,-0.488 0.505,-0.452 0.521,-0.406L0.449,-0.383C0.436,-0.415 0.416,-0.44 0.388,-0.458C0.361,-0.476 0.329,-0.485 0.294,-0.485C0.254,-0.485 0.222,-0.475 0.196,-0.457C0.17,-0.439 0.15,-0.414 0.138,-0.382C0.125,-0.349 0.118,-0.312 0.118,-0.27C0.119,-0.205 0.134,-0.153 0.163,-0.114C0.192,-0.075 0.236,-0.056 0.294,-0.056C0.331,-0.056 0.362,-0.064 0.388,-0.081C0.414,-0.098 0.433,-0.122 0.447,-0.155L0.521,-0.133C0.5,-0.085 0.471,-0.048 0.433,-0.023C0.394,0.002 0.348,0.015 0.294,0.015Z" style="fill-opacity:0.5;fill-rule:nonzero;"/>
                </g>
                <g transform="matrix(10,0,0,10,180.284,36.3879)">
                    <path d="M0.296,0.015C0.242,0.015 0.196,0.003 0.158,-0.021C0.12,-0.046 0.091,-0.08 0.07,-0.123C0.05,-0.166 0.04,-0.215 0.04,-0.271C0.04,-0.327 0.05,-0.377 0.071,-0.42C0.092,-0.462 0.121,-0.495 0.159,-0.519C0.197,-0.543 0.243,-0.555 0.296,-0.555C0.349,-0.555 0.396,-0.543 0.434,-0.519C0.472,-0.495 0.501,-0.461 0.521,-0.418C0.541,-0.375 0.552,-0.326 0.552,-0.271C0.552,-0.214 0.541,-0.164 0.521,-0.121C0.501,-0.078 0.471,-0.045 0.433,-0.021C0.395,0.003 0.349,0.015 0.296,0.015ZM0.296,-0.056C0.356,-0.056 0.4,-0.075 0.43,-0.115C0.459,-0.155 0.473,-0.207 0.473,-0.271C0.473,-0.336 0.459,-0.388 0.429,-0.427C0.4,-0.465 0.355,-0.485 0.296,-0.485C0.255,-0.485 0.222,-0.475 0.196,-0.457C0.17,-0.439 0.15,-0.414 0.137,-0.382C0.124,-0.35 0.118,-0.313 0.118,-0.271C0.118,-0.205 0.133,-0.153 0.163,-0.114C0.193,-0.075 0.237,-0.056 0.296,-0.056Z" style="fill-opacity:0.5;fill-rule:nonzero;"/>
                </g>
                <g transform="matrix(10,0,0,10,186.199,36.3879)">
                    <path d="M0.07,-0L0.07,-0.54L0.136,-0.54L0.136,-0.41L0.123,-0.427C0.129,-0.443 0.137,-0.458 0.147,-0.471C0.156,-0.485 0.167,-0.496 0.178,-0.504C0.192,-0.517 0.208,-0.526 0.227,-0.533C0.246,-0.539 0.265,-0.543 0.283,-0.544C0.303,-0.545 0.32,-0.544 0.336,-0.54L0.336,-0.471C0.316,-0.476 0.294,-0.477 0.271,-0.474C0.248,-0.472 0.226,-0.463 0.206,-0.447C0.189,-0.433 0.175,-0.416 0.166,-0.396C0.157,-0.377 0.151,-0.356 0.148,-0.334C0.145,-0.312 0.143,-0.291 0.143,-0.27L0.143,-0L0.07,-0Z" style="fill-opacity:0.5;fill-rule:nonzero;"/>
                </g>
                <g transform="matrix(10,0,0,10,189.704,36.3879)">
                    <path d="M0.299,0.015C0.246,0.015 0.2,0.003 0.162,-0.02C0.123,-0.043 0.093,-0.076 0.072,-0.118C0.051,-0.161 0.04,-0.211 0.04,-0.268C0.04,-0.327 0.051,-0.378 0.071,-0.421C0.093,-0.464 0.122,-0.497 0.16,-0.52C0.198,-0.543 0.244,-0.555 0.296,-0.555C0.349,-0.555 0.394,-0.543 0.432,-0.518C0.47,-0.494 0.498,-0.459 0.518,-0.413C0.537,-0.367 0.546,-0.313 0.544,-0.25L0.469,-0.25L0.469,-0.276C0.468,-0.345 0.453,-0.398 0.424,-0.434C0.395,-0.47 0.353,-0.488 0.298,-0.488C0.239,-0.488 0.195,-0.469 0.164,-0.431C0.133,-0.393 0.118,-0.34 0.118,-0.27C0.118,-0.202 0.133,-0.149 0.164,-0.112C0.195,-0.074 0.239,-0.056 0.296,-0.056C0.334,-0.056 0.368,-0.064 0.397,-0.082C0.426,-0.1 0.448,-0.126 0.465,-0.16L0.534,-0.133C0.512,-0.086 0.481,-0.05 0.439,-0.024C0.398,0.002 0.351,0.015 0.299,0.015ZM0.092,-0.25L0.092,-0.311L0.504,-0.311L0.504,-0.25L0.092,-0.25Z" style="fill-opacity:0.5;fill-rule:nonzero;"/>
                </g>
                <g transform="matrix(10,0,0,10,197.549,36.3879)">
                    <rect x="0.08" y="-0.735" width="0.074" height="0.735" style="fill-opacity:0.5;fill-rule:nonzero;"/>
                </g>
                <g transform="matrix(10,0,0,10,199.884,36.3879)">
                    <path d="M0.08,-0.643L0.08,-0.725L0.154,-0.725L0.154,-0.643L0.08,-0.643ZM0.08,-0L0.08,-0.54L0.154,-0.54L0.154,-0L0.08,-0Z" style="fill-opacity:0.5;fill-rule:nonzero;"/>
                </g>
                <g transform="matrix(10,0,0,10,202.219,36.3879)">
                    <path d="M0.313,0.015C0.263,0.015 0.221,0.002 0.187,-0.023C0.152,-0.048 0.126,-0.082 0.109,-0.125C0.091,-0.168 0.082,-0.217 0.082,-0.271C0.082,-0.325 0.091,-0.374 0.109,-0.417C0.127,-0.46 0.153,-0.493 0.188,-0.518C0.222,-0.543 0.265,-0.555 0.316,-0.555C0.365,-0.555 0.407,-0.543 0.443,-0.518C0.478,-0.493 0.505,-0.459 0.524,-0.416C0.543,-0.373 0.552,-0.324 0.552,-0.271C0.552,-0.217 0.543,-0.168 0.524,-0.125C0.504,-0.082 0.477,-0.048 0.442,-0.023C0.406,0.002 0.363,0.015 0.313,0.015ZM0.07,-0L0.07,-0.72L0.143,-0.72L0.143,-0.406L0.136,-0.406L0.136,-0L0.07,-0ZM0.305,-0.054C0.343,-0.054 0.374,-0.063 0.399,-0.082C0.424,-0.101 0.443,-0.127 0.455,-0.16C0.468,-0.193 0.474,-0.23 0.474,-0.271C0.474,-0.311 0.468,-0.348 0.456,-0.381C0.443,-0.413 0.424,-0.439 0.399,-0.458C0.374,-0.477 0.342,-0.487 0.304,-0.487C0.266,-0.487 0.235,-0.477 0.21,-0.459C0.185,-0.441 0.166,-0.415 0.154,-0.383C0.142,-0.35 0.136,-0.313 0.136,-0.271C0.136,-0.229 0.142,-0.192 0.154,-0.159C0.166,-0.126 0.185,-0.1 0.21,-0.082C0.235,-0.063 0.267,-0.054 0.305,-0.054Z" style="fill-opacity:0.5;fill-rule:nonzero;"/>
                </g>
                <g transform="matrix(10,0,0,10,208.139,36.3879)">
                    <path d="M0.07,-0L0.07,-0.54L0.136,-0.54L0.136,-0.41L0.123,-0.427C0.129,-0.443 0.137,-0.458 0.147,-0.471C0.156,-0.485 0.167,-0.496 0.178,-0.504C0.192,-0.517 0.208,-0.526 0.227,-0.533C0.246,-0.539 0.265,-0.543 0.283,-0.544C0.303,-0.545 0.32,-0.544 0.336,-0.54L0.336,-0.471C0.316,-0.476 0.294,-0.477 0.271,-0.474C0.248,-0.472 0.226,-0.463 0.206,-0.447C0.189,-0.433 0.175,-0.416 0.166,-0.396C0.157,-0.377 0.151,-0.356 0.148,-0.334C0.145,-0.312 0.143,-0.291 0.143,-0.27L0.143,-0L0.07,-0Z" style="fill-opacity:0.5;fill-rule:nonzero;"/>
                </g>
                <g transform="matrix(10,0,0,10,211.544,36.3879)">
                    <path d="M0.225,0.015C0.184,0.015 0.15,0.008 0.122,-0.007C0.095,-0.022 0.074,-0.041 0.061,-0.066C0.047,-0.09 0.04,-0.116 0.04,-0.145C0.04,-0.174 0.046,-0.199 0.058,-0.22C0.07,-0.241 0.086,-0.258 0.106,-0.272C0.127,-0.285 0.151,-0.295 0.178,-0.302C0.205,-0.309 0.235,-0.315 0.268,-0.32C0.301,-0.325 0.334,-0.329 0.366,-0.333C0.398,-0.337 0.426,-0.341 0.45,-0.344L0.424,-0.329C0.425,-0.382 0.414,-0.421 0.393,-0.447C0.371,-0.473 0.333,-0.486 0.28,-0.486C0.243,-0.486 0.211,-0.477 0.186,-0.461C0.16,-0.444 0.142,-0.418 0.132,-0.382L0.061,-0.403C0.073,-0.451 0.098,-0.488 0.135,-0.515C0.172,-0.542 0.221,-0.555 0.281,-0.555C0.33,-0.555 0.372,-0.546 0.406,-0.527C0.441,-0.509 0.465,-0.482 0.48,-0.447C0.486,-0.431 0.491,-0.414 0.493,-0.395C0.495,-0.375 0.496,-0.356 0.496,-0.336L0.496,-0L0.43,-0L0.43,-0.136L0.449,-0.128C0.431,-0.081 0.402,-0.046 0.364,-0.021C0.325,0.003 0.279,0.015 0.225,0.015ZM0.233,-0.049C0.267,-0.049 0.297,-0.055 0.323,-0.067C0.349,-0.079 0.369,-0.096 0.385,-0.118C0.401,-0.139 0.411,-0.164 0.416,-0.191C0.42,-0.208 0.422,-0.227 0.422,-0.248C0.422,-0.269 0.423,-0.284 0.423,-0.295L0.451,-0.28C0.426,-0.277 0.398,-0.273 0.369,-0.27C0.34,-0.267 0.311,-0.263 0.283,-0.259C0.255,-0.254 0.23,-0.249 0.207,-0.243C0.192,-0.239 0.177,-0.233 0.163,-0.225C0.148,-0.217 0.136,-0.206 0.127,-0.194C0.118,-0.181 0.114,-0.164 0.114,-0.145C0.114,-0.129 0.117,-0.114 0.125,-0.1C0.133,-0.085 0.146,-0.073 0.163,-0.063C0.181,-0.053 0.204,-0.049 0.233,-0.049Z" style="fill-opacity:0.5;fill-rule:nonzero;"/>
                </g>
                <g transform="matrix(10,0,0,10,217.099,36.3879)">
                    <path d="M0.07,-0L0.07,-0.54L0.136,-0.54L0.136,-0.41L0.123,-0.427C0.129,-0.443 0.137,-0.458 0.147,-0.471C0.156,-0.485 0.167,-0.496 0.178,-0.504C0.192,-0.517 0.208,-0.526 0.227,-0.533C0.246,-0.539 0.265,-0.543 0.283,-0.544C0.303,-0.545 0.32,-0.544 0.336,-0.54L0.336,-0.471C0.316,-0.476 0.294,-0.477 0.271,-0.474C0.248,-0.472 0.226,-0.463 0.206,-0.447C0.189,-0.433 0.175,-0.416 0.166,-0.396C0.157,-0.377 0.151,-0.356 0.148,-0.334C0.145,-0.312 0.143,-0.291 0.143,-0.27L0.143,-0L0.07,-0Z" style="fill-opacity:0.5;fill-rule:nonzero;"/>
                </g>
                <g transform="matrix(10,0,0,10,220.639,36.3879)">
                    <path d="M0.147,0.24L0.252,-0.043L0.253,0.041L0.017,-0.54L0.095,-0.54L0.289,-0.055L0.257,-0.055L0.436,-0.54L0.51,-0.54L0.221,0.24L0.147,0.24Z" style="fill-opacity:0.5;fill-rule:nonzero;"/>
                </g>
            </g>
        </g>
    </g>
</svg>
