<?xml version="1.0" encoding="UTF-8" standalone="no"?>
<!DOCTYPE svg PUBLIC "-//W3C//DTD SVG 1.1//EN" "http://www.w3.org/Graphics/SVG/1.1/DTD/svg11.dtd">
<svg width="100%" height="100%" viewBox="0 0 200 50" version="1.1" xmlns="http://www.w3.org/2000/svg" xmlns:xlink="http://www.w3.org/1999/xlink" xml:space="preserve" xmlns:serif="http://www.serif.com/" style="fill-rule:evenodd;clip-rule:evenodd;stroke-linejoin:round;stroke-miterlimit:2;">
    <g transform="matrix(1,0,0,1,-639.403,-135.359)">
        <g id="Artboard1" transform="matrix(1,0,0,0.625,639.403,135.359)">
            <rect x="0" y="0" width="200" height="80" style="fill:none;"/>
            <g transform="matrix(1,0,0,1,-1.13687e-13,-0.48329)">
                <g transform="matrix(0.872507,0,0,1.39601,-37.8681,13.6438)">
                    <g>
                        <g transform="matrix(10,0,0,10,98.5837,36.3879)">
                            <path d="M0.119,-0L0.119,-0.559C0.119,-0.573 0.12,-0.587 0.121,-0.603C0.122,-0.618 0.125,-0.634 0.13,-0.649C0.135,-0.664 0.143,-0.678 0.154,-0.691C0.168,-0.706 0.183,-0.716 0.199,-0.723C0.215,-0.729 0.232,-0.733 0.248,-0.734C0.264,-0.735 0.279,-0.735 0.293,-0.735L0.361,-0.735L0.361,-0.649L0.298,-0.649C0.273,-0.649 0.254,-0.643 0.242,-0.631C0.23,-0.619 0.224,-0.601 0.224,-0.579L0.224,-0L0.119,-0ZM0.03,-0.456L0.03,-0.54L0.361,-0.54L0.361,-0.456L0.03,-0.456Z" style="fill:rgb(128,128,128);fill-opacity:0.5;fill-rule:nonzero;"/>
                        </g>
                        <g transform="matrix(10,0,0,10,101.789,36.3879)">
                            <path d="M0.07,-0L0.07,-0.54L0.163,-0.54L0.163,-0.409L0.15,-0.426C0.157,-0.443 0.165,-0.459 0.176,-0.474C0.187,-0.488 0.199,-0.5 0.213,-0.509C0.227,-0.52 0.242,-0.527 0.259,-0.533C0.276,-0.538 0.293,-0.542 0.311,-0.543C0.328,-0.544 0.345,-0.543 0.362,-0.54L0.362,-0.442C0.344,-0.447 0.324,-0.448 0.303,-0.446C0.281,-0.444 0.262,-0.437 0.244,-0.426C0.227,-0.414 0.213,-0.401 0.203,-0.386C0.193,-0.37 0.186,-0.352 0.182,-0.333C0.178,-0.314 0.175,-0.294 0.175,-0.273L0.175,-0L0.07,-0Z" style="fill:rgb(128,128,128);fill-opacity:0.5;fill-rule:nonzero;"/>
                        </g>
                        <g transform="matrix(10,0,0,10,105.054,36.3879)">
                            <path d="M0.31,0.015C0.256,0.015 0.209,0.003 0.168,-0.02C0.128,-0.044 0.096,-0.077 0.074,-0.119C0.051,-0.161 0.04,-0.21 0.04,-0.266C0.04,-0.325 0.051,-0.376 0.073,-0.419C0.095,-0.462 0.126,-0.496 0.166,-0.52C0.206,-0.543 0.252,-0.555 0.305,-0.555C0.36,-0.555 0.406,-0.542 0.445,-0.517C0.484,-0.491 0.513,-0.455 0.532,-0.408C0.551,-0.361 0.559,-0.305 0.555,-0.241L0.45,-0.241L0.45,-0.279C0.449,-0.341 0.437,-0.388 0.414,-0.418C0.391,-0.448 0.356,-0.463 0.309,-0.463C0.256,-0.463 0.217,-0.446 0.191,-0.413C0.164,-0.38 0.151,-0.332 0.151,-0.27C0.151,-0.211 0.164,-0.165 0.191,-0.132C0.217,-0.1 0.255,-0.084 0.305,-0.084C0.337,-0.084 0.365,-0.091 0.389,-0.106C0.413,-0.121 0.432,-0.142 0.445,-0.17L0.548,-0.137C0.527,-0.089 0.495,-0.051 0.452,-0.025C0.409,0.002 0.362,0.015 0.31,0.015ZM0.117,-0.241L0.117,-0.322L0.502,-0.322L0.502,-0.241L0.117,-0.241Z" style="fill:rgb(128,128,128);fill-opacity:0.5;fill-rule:nonzero;"/>
                        </g>
                        <g transform="matrix(10,0,0,10,110.519,36.3879)">
                            <path d="M0.31,0.015C0.256,0.015 0.209,0.003 0.168,-0.02C0.128,-0.044 0.096,-0.077 0.074,-0.119C0.051,-0.161 0.04,-0.21 0.04,-0.266C0.04,-0.325 0.051,-0.376 0.073,-0.419C0.095,-0.462 0.126,-0.496 0.166,-0.52C0.206,-0.543 0.252,-0.555 0.305,-0.555C0.36,-0.555 0.406,-0.542 0.445,-0.517C0.484,-0.491 0.513,-0.455 0.532,-0.408C0.551,-0.361 0.559,-0.305 0.555,-0.241L0.45,-0.241L0.45,-0.279C0.449,-0.341 0.437,-0.388 0.414,-0.418C0.391,-0.448 0.356,-0.463 0.309,-0.463C0.256,-0.463 0.217,-0.446 0.191,-0.413C0.164,-0.38 0.151,-0.332 0.151,-0.27C0.151,-0.211 0.164,-0.165 0.191,-0.132C0.217,-0.1 0.255,-0.084 0.305,-0.084C0.337,-0.084 0.365,-0.091 0.389,-0.106C0.413,-0.121 0.432,-0.142 0.445,-0.17L0.548,-0.137C0.527,-0.089 0.495,-0.051 0.452,-0.025C0.409,0.002 0.362,0.015 0.31,0.015ZM0.117,-0.241L0.117,-0.322L0.502,-0.322L0.502,-0.241L0.117,-0.241Z" style="fill:rgb(128,128,128);fill-opacity:0.5;fill-rule:nonzero;"/>
                        </g>
                        <g transform="matrix(10,0,0,10,115.984,36.3879)">
                            <path d="M0.277,0.015C0.211,0.014 0.157,-0 0.116,-0.029C0.075,-0.058 0.049,-0.099 0.04,-0.152L0.147,-0.168C0.154,-0.14 0.169,-0.118 0.193,-0.102C0.217,-0.086 0.248,-0.078 0.283,-0.078C0.316,-0.078 0.342,-0.084 0.36,-0.098C0.379,-0.111 0.388,-0.129 0.388,-0.153C0.388,-0.166 0.385,-0.177 0.378,-0.186C0.372,-0.194 0.358,-0.202 0.338,-0.21C0.317,-0.218 0.285,-0.227 0.243,-0.238C0.197,-0.251 0.16,-0.263 0.133,-0.277C0.106,-0.291 0.086,-0.307 0.075,-0.326C0.063,-0.344 0.058,-0.367 0.058,-0.393C0.058,-0.426 0.066,-0.454 0.084,-0.478C0.101,-0.503 0.125,-0.522 0.157,-0.535C0.188,-0.548 0.225,-0.555 0.268,-0.555C0.309,-0.555 0.346,-0.549 0.378,-0.536C0.41,-0.523 0.437,-0.504 0.457,-0.48C0.476,-0.456 0.489,-0.429 0.493,-0.397L0.386,-0.377C0.382,-0.403 0.37,-0.424 0.349,-0.439C0.328,-0.454 0.302,-0.462 0.269,-0.463C0.237,-0.464 0.211,-0.459 0.192,-0.447C0.172,-0.435 0.162,-0.419 0.162,-0.399C0.162,-0.387 0.166,-0.376 0.173,-0.368C0.181,-0.36 0.195,-0.352 0.217,-0.344C0.239,-0.336 0.271,-0.327 0.313,-0.317C0.358,-0.305 0.394,-0.292 0.421,-0.278C0.448,-0.264 0.467,-0.247 0.478,-0.227C0.49,-0.208 0.496,-0.184 0.496,-0.157C0.496,-0.103 0.476,-0.061 0.437,-0.031C0.398,-0.001 0.345,0.014 0.277,0.015Z" style="fill:rgb(128,128,128);fill-opacity:0.5;fill-rule:nonzero;"/>
                        </g>
                        <g transform="matrix(10,0,0,10,120.844,36.3879)">
                            <path d="M0.379,-0C0.345,0.007 0.312,0.009 0.279,0.008C0.246,0.007 0.217,0.001 0.192,-0.011C0.166,-0.022 0.147,-0.041 0.134,-0.066C0.122,-0.088 0.116,-0.111 0.115,-0.134C0.114,-0.157 0.114,-0.183 0.114,-0.213L0.114,-0.69L0.219,-0.69L0.219,-0.218C0.219,-0.196 0.219,-0.177 0.219,-0.161C0.22,-0.145 0.223,-0.132 0.23,-0.121C0.242,-0.1 0.261,-0.088 0.287,-0.085C0.313,-0.082 0.344,-0.084 0.379,-0.089L0.379,-0ZM0.01,-0.456L0.01,-0.54L0.379,-0.54L0.379,-0.456L0.01,-0.456Z" style="fill:rgb(128,128,128);fill-opacity:0.5;fill-rule:nonzero;"/>
                        </g>
                        <g transform="matrix(10,0,0,10,124.419,36.3879)">
                            <path d="M0.143,0.24L0.248,-0.045L0.249,0.04L0.014,-0.54L0.123,-0.54L0.299,-0.093L0.267,-0.093L0.435,-0.54L0.541,-0.54L0.243,0.24L0.143,0.24Z" style="fill:rgb(128,128,128);fill-opacity:0.5;fill-rule:nonzero;"/>
                        </g>
                        <g transform="matrix(10,0,0,10,129.404,36.3879)">
                            <rect x="0.08" y="-0.735" width="0.105" height="0.735" style="fill:rgb(128,128,128);fill-opacity:0.5;fill-rule:nonzero;"/>
                        </g>
                        <g transform="matrix(10,0,0,10,131.549,36.3879)">
                            <path d="M0.31,0.015C0.256,0.015 0.209,0.003 0.168,-0.02C0.128,-0.044 0.096,-0.077 0.074,-0.119C0.051,-0.161 0.04,-0.21 0.04,-0.266C0.04,-0.325 0.051,-0.376 0.073,-0.419C0.095,-0.462 0.126,-0.496 0.166,-0.52C0.206,-0.543 0.252,-0.555 0.305,-0.555C0.36,-0.555 0.406,-0.542 0.445,-0.517C0.484,-0.491 0.513,-0.455 0.532,-0.408C0.551,-0.361 0.559,-0.305 0.555,-0.241L0.45,-0.241L0.45,-0.279C0.449,-0.341 0.437,-0.388 0.414,-0.418C0.391,-0.448 0.356,-0.463 0.309,-0.463C0.256,-0.463 0.217,-0.446 0.191,-0.413C0.164,-0.38 0.151,-0.332 0.151,-0.27C0.151,-0.211 0.164,-0.165 0.191,-0.132C0.217,-0.1 0.255,-0.084 0.305,-0.084C0.337,-0.084 0.365,-0.091 0.389,-0.106C0.413,-0.121 0.432,-0.142 0.445,-0.17L0.548,-0.137C0.527,-0.089 0.495,-0.051 0.452,-0.025C0.409,0.002 0.362,0.015 0.31,0.015ZM0.117,-0.241L0.117,-0.322L0.502,-0.322L0.502,-0.241L0.117,-0.241Z" style="fill:rgb(128,128,128);fill-opacity:0.5;fill-rule:nonzero;"/>
                        </g>
                        <g transform="matrix(10,0,0,10,138.514,36.3879)">
                            <path d="M0.293,0.255C0.264,0.255 0.235,0.25 0.208,0.241C0.181,0.232 0.156,0.219 0.134,0.202C0.112,0.184 0.093,0.163 0.079,0.137L0.175,0.088C0.187,0.111 0.203,0.128 0.225,0.138C0.247,0.149 0.27,0.154 0.294,0.155C0.323,0.154 0.348,0.149 0.37,0.139C0.391,0.128 0.406,0.112 0.417,0.091C0.428,0.07 0.433,0.044 0.433,0.014L0.433,-0.138L0.446,-0.138L0.446,-0.54L0.538,-0.54L0.538,0.015C0.538,0.029 0.538,0.042 0.537,0.055C0.536,0.068 0.534,0.081 0.531,0.095C0.523,0.131 0.509,0.161 0.487,0.184C0.466,0.208 0.438,0.226 0.405,0.237C0.372,0.249 0.335,0.255 0.293,0.255ZM0.284,0.015C0.234,0.015 0.191,0.002 0.154,-0.023C0.118,-0.048 0.09,-0.082 0.07,-0.125C0.05,-0.168 0.04,-0.217 0.04,-0.271C0.04,-0.325 0.05,-0.373 0.07,-0.416C0.09,-0.459 0.118,-0.493 0.155,-0.518C0.192,-0.543 0.236,-0.555 0.286,-0.555C0.338,-0.555 0.38,-0.543 0.415,-0.518C0.45,-0.493 0.476,-0.459 0.494,-0.416C0.512,-0.373 0.521,-0.325 0.521,-0.271C0.521,-0.217 0.512,-0.168 0.494,-0.125C0.476,-0.082 0.45,-0.048 0.414,-0.023C0.38,0.002 0.336,0.015 0.284,0.015ZM0.299,-0.08C0.333,-0.08 0.361,-0.088 0.383,-0.104C0.405,-0.12 0.421,-0.143 0.431,-0.172C0.441,-0.2 0.446,-0.233 0.446,-0.271C0.446,-0.308 0.44,-0.341 0.43,-0.37C0.42,-0.398 0.404,-0.421 0.383,-0.437C0.362,-0.453 0.335,-0.461 0.303,-0.461C0.268,-0.461 0.239,-0.452 0.217,-0.435C0.195,-0.418 0.178,-0.395 0.167,-0.367C0.156,-0.338 0.151,-0.306 0.151,-0.271C0.151,-0.235 0.156,-0.203 0.167,-0.174C0.178,-0.145 0.194,-0.122 0.216,-0.105C0.238,-0.088 0.266,-0.08 0.299,-0.08Z" style="fill:rgb(128,128,128);fill-opacity:0.5;fill-rule:nonzero;"/>
                        </g>
                        <g transform="matrix(10,0,0,10,144.094,36.3879)">
                            <path d="M0.223,0.015C0.183,0.015 0.149,0.008 0.122,-0.007C0.095,-0.022 0.075,-0.042 0.061,-0.066C0.047,-0.091 0.04,-0.118 0.04,-0.147C0.04,-0.174 0.045,-0.198 0.055,-0.219C0.064,-0.24 0.079,-0.257 0.098,-0.272C0.117,-0.286 0.14,-0.298 0.168,-0.307C0.192,-0.314 0.219,-0.32 0.249,-0.326C0.279,-0.331 0.311,-0.336 0.345,-0.341C0.378,-0.345 0.411,-0.35 0.445,-0.355L0.406,-0.334C0.407,-0.376 0.398,-0.407 0.38,-0.428C0.361,-0.448 0.33,-0.459 0.284,-0.459C0.256,-0.459 0.23,-0.452 0.206,-0.439C0.183,-0.426 0.166,-0.404 0.157,-0.374L0.059,-0.404C0.073,-0.45 0.098,-0.487 0.136,-0.514C0.173,-0.541 0.223,-0.555 0.285,-0.555C0.334,-0.555 0.376,-0.547 0.412,-0.53C0.448,-0.514 0.474,-0.488 0.491,-0.452C0.499,-0.434 0.504,-0.416 0.506,-0.396C0.508,-0.376 0.509,-0.355 0.509,-0.333L0.509,-0L0.417,-0L0.417,-0.124L0.435,-0.108C0.413,-0.066 0.384,-0.035 0.35,-0.015C0.315,0.005 0.273,0.015 0.223,0.015ZM0.241,-0.07C0.271,-0.07 0.296,-0.076 0.318,-0.086C0.339,-0.097 0.356,-0.11 0.369,-0.127C0.382,-0.143 0.391,-0.16 0.395,-0.178C0.4,-0.194 0.403,-0.212 0.404,-0.232C0.405,-0.252 0.406,-0.268 0.406,-0.28L0.44,-0.267C0.406,-0.262 0.377,-0.258 0.349,-0.254C0.323,-0.25 0.298,-0.246 0.276,-0.242C0.254,-0.238 0.235,-0.233 0.218,-0.228C0.204,-0.223 0.191,-0.217 0.18,-0.21C0.169,-0.203 0.16,-0.195 0.153,-0.185C0.147,-0.174 0.143,-0.162 0.143,-0.148C0.143,-0.134 0.147,-0.121 0.154,-0.109C0.161,-0.097 0.172,-0.088 0.186,-0.081C0.2,-0.074 0.219,-0.07 0.241,-0.07Z" style="fill:rgb(128,128,128);fill-opacity:0.5;fill-rule:nonzero;"/>
                        </g>
                        <g transform="matrix(10,0,0,10,149.289,36.3879)">
                            <path d="M0.717,-0L0.718,-0.337C0.718,-0.376 0.708,-0.406 0.688,-0.428C0.668,-0.45 0.641,-0.461 0.609,-0.461C0.589,-0.461 0.57,-0.456 0.554,-0.447C0.537,-0.438 0.524,-0.424 0.514,-0.406C0.504,-0.388 0.499,-0.365 0.499,-0.338L0.448,-0.363C0.447,-0.401 0.455,-0.434 0.472,-0.463C0.489,-0.492 0.512,-0.514 0.541,-0.53C0.57,-0.546 0.603,-0.554 0.639,-0.554C0.697,-0.554 0.742,-0.536 0.774,-0.501C0.806,-0.466 0.822,-0.42 0.822,-0.362L0.822,-0L0.717,-0ZM0.07,-0L0.07,-0.54L0.163,-0.54L0.163,-0.384L0.174,-0.384L0.174,-0L0.07,-0ZM0.394,-0L0.394,-0.335C0.394,-0.374 0.384,-0.405 0.364,-0.427C0.344,-0.449 0.318,-0.461 0.284,-0.461C0.252,-0.461 0.225,-0.449 0.205,-0.427C0.185,-0.404 0.174,-0.374 0.174,-0.338L0.125,-0.37C0.125,-0.405 0.133,-0.436 0.15,-0.464C0.167,-0.492 0.19,-0.514 0.219,-0.53C0.248,-0.546 0.281,-0.554 0.318,-0.554C0.356,-0.554 0.389,-0.545 0.416,-0.529C0.443,-0.513 0.463,-0.491 0.477,-0.462C0.491,-0.433 0.499,-0.399 0.499,-0.361L0.498,-0L0.394,-0Z" style="fill:rgb(128,128,128);fill-opacity:0.5;fill-rule:nonzero;"/>
                        </g>
                        <g transform="matrix(10,0,0,10,157.544,36.3879)">
                            <path d="M0.31,0.015C0.256,0.015 0.209,0.003 0.168,-0.02C0.128,-0.044 0.096,-0.077 0.074,-0.119C0.051,-0.161 0.04,-0.21 0.04,-0.266C0.04,-0.325 0.051,-0.376 0.073,-0.419C0.095,-0.462 0.126,-0.496 0.166,-0.52C0.206,-0.543 0.252,-0.555 0.305,-0.555C0.36,-0.555 0.406,-0.542 0.445,-0.517C0.484,-0.491 0.513,-0.455 0.532,-0.408C0.551,-0.361 0.559,-0.305 0.555,-0.241L0.45,-0.241L0.45,-0.279C0.449,-0.341 0.437,-0.388 0.414,-0.418C0.391,-0.448 0.356,-0.463 0.309,-0.463C0.256,-0.463 0.217,-0.446 0.191,-0.413C0.164,-0.38 0.151,-0.332 0.151,-0.27C0.151,-0.211 0.164,-0.165 0.191,-0.132C0.217,-0.1 0.255,-0.084 0.305,-0.084C0.337,-0.084 0.365,-0.091 0.389,-0.106C0.413,-0.121 0.432,-0.142 0.445,-0.17L0.548,-0.137C0.527,-0.089 0.495,-0.051 0.452,-0.025C0.409,0.002 0.362,0.015 0.31,0.015ZM0.117,-0.241L0.117,-0.322L0.502,-0.322L0.502,-0.241L0.117,-0.241Z" style="fill:rgb(128,128,128);fill-opacity:0.5;fill-rule:nonzero;"/>
                        </g>
                        <g transform="matrix(10,0,0,10,163.009,36.3879)">
                            <path d="M0.277,0.015C0.211,0.014 0.157,-0 0.116,-0.029C0.075,-0.058 0.049,-0.099 0.04,-0.152L0.147,-0.168C0.154,-0.14 0.169,-0.118 0.193,-0.102C0.217,-0.086 0.248,-0.078 0.283,-0.078C0.316,-0.078 0.342,-0.084 0.36,-0.098C0.379,-0.111 0.388,-0.129 0.388,-0.153C0.388,-0.166 0.385,-0.177 0.378,-0.186C0.372,-0.194 0.358,-0.202 0.338,-0.21C0.317,-0.218 0.285,-0.227 0.243,-0.238C0.197,-0.251 0.16,-0.263 0.133,-0.277C0.106,-0.291 0.086,-0.307 0.075,-0.326C0.063,-0.344 0.058,-0.367 0.058,-0.393C0.058,-0.426 0.066,-0.454 0.084,-0.478C0.101,-0.503 0.125,-0.522 0.157,-0.535C0.188,-0.548 0.225,-0.555 0.268,-0.555C0.309,-0.555 0.346,-0.549 0.378,-0.536C0.41,-0.523 0.437,-0.504 0.457,-0.48C0.476,-0.456 0.489,-0.429 0.493,-0.397L0.386,-0.377C0.382,-0.403 0.37,-0.424 0.349,-0.439C0.328,-0.454 0.302,-0.462 0.269,-0.463C0.237,-0.464 0.211,-0.459 0.192,-0.447C0.172,-0.435 0.162,-0.419 0.162,-0.399C0.162,-0.387 0.166,-0.376 0.173,-0.368C0.181,-0.36 0.195,-0.352 0.217,-0.344C0.239,-0.336 0.271,-0.327 0.313,-0.317C0.358,-0.305 0.394,-0.292 0.421,-0.278C0.448,-0.264 0.467,-0.247 0.478,-0.227C0.49,-0.208 0.496,-0.184 0.496,-0.157C0.496,-0.103 0.476,-0.061 0.437,-0.031C0.398,-0.001 0.345,0.014 0.277,0.015Z" style="fill:rgb(128,128,128);fill-opacity:0.5;fill-rule:nonzero;"/>
                        </g>
                        <g transform="matrix(10,0,0,10,169.369,36.3879)">
                            <path d="M0.301,0.015C0.246,0.015 0.199,0.003 0.16,-0.022C0.121,-0.047 0.092,-0.081 0.071,-0.124C0.051,-0.167 0.04,-0.215 0.04,-0.27C0.04,-0.326 0.051,-0.375 0.072,-0.418C0.093,-0.461 0.123,-0.494 0.162,-0.519C0.201,-0.543 0.248,-0.555 0.303,-0.555C0.362,-0.555 0.412,-0.54 0.454,-0.511C0.496,-0.482 0.523,-0.442 0.537,-0.391L0.433,-0.361C0.422,-0.391 0.405,-0.414 0.382,-0.431C0.358,-0.448 0.331,-0.457 0.301,-0.457C0.267,-0.457 0.238,-0.448 0.217,-0.432C0.195,-0.416 0.178,-0.394 0.168,-0.366C0.157,-0.338 0.151,-0.306 0.151,-0.27C0.151,-0.214 0.164,-0.169 0.189,-0.135C0.214,-0.101 0.252,-0.084 0.301,-0.084C0.335,-0.084 0.362,-0.091 0.383,-0.107C0.404,-0.122 0.42,-0.145 0.431,-0.173L0.537,-0.149C0.519,-0.096 0.49,-0.055 0.449,-0.027C0.408,0.001 0.359,0.015 0.301,0.015Z" style="fill:rgb(128,128,128);fill-opacity:0.5;fill-rule:nonzero;"/>
                        </g>
                        <g transform="matrix(10,0,0,10,174.404,36.3879)">
                            <path d="M0.305,0.015C0.251,0.015 0.204,0.003 0.164,-0.021C0.124,-0.046 0.094,-0.079 0.072,-0.122C0.051,-0.165 0.04,-0.215 0.04,-0.271C0.04,-0.327 0.051,-0.376 0.073,-0.419C0.095,-0.462 0.126,-0.495 0.166,-0.519C0.205,-0.543 0.252,-0.555 0.305,-0.555C0.359,-0.555 0.405,-0.543 0.445,-0.519C0.485,-0.494 0.515,-0.461 0.537,-0.418C0.559,-0.375 0.57,-0.326 0.57,-0.271C0.57,-0.214 0.559,-0.165 0.537,-0.122C0.515,-0.079 0.484,-0.045 0.445,-0.021C0.405,0.003 0.358,0.015 0.305,0.015ZM0.305,-0.084C0.356,-0.084 0.395,-0.101 0.42,-0.136C0.446,-0.171 0.459,-0.216 0.459,-0.271C0.459,-0.327 0.446,-0.372 0.42,-0.406C0.394,-0.44 0.356,-0.457 0.305,-0.457C0.27,-0.457 0.241,-0.449 0.218,-0.433C0.195,-0.417 0.179,-0.395 0.168,-0.367C0.157,-0.339 0.151,-0.307 0.151,-0.271C0.151,-0.214 0.164,-0.169 0.19,-0.135C0.216,-0.101 0.254,-0.084 0.305,-0.084Z" style="fill:rgb(128,128,128);fill-opacity:0.5;fill-rule:nonzero;"/>
                        </g>
                        <g transform="matrix(10,0,0,10,179.999,36.3879)">
                            <path d="M0.07,-0L0.07,-0.54L0.163,-0.54L0.163,-0.409L0.15,-0.426C0.157,-0.443 0.165,-0.459 0.176,-0.474C0.187,-0.488 0.199,-0.5 0.213,-0.509C0.227,-0.52 0.242,-0.527 0.259,-0.533C0.276,-0.538 0.293,-0.542 0.311,-0.543C0.328,-0.544 0.345,-0.543 0.362,-0.54L0.362,-0.442C0.344,-0.447 0.324,-0.448 0.303,-0.446C0.281,-0.444 0.262,-0.437 0.244,-0.426C0.227,-0.414 0.213,-0.401 0.203,-0.386C0.193,-0.37 0.186,-0.352 0.182,-0.333C0.178,-0.314 0.175,-0.294 0.175,-0.273L0.175,-0L0.07,-0Z" style="fill:rgb(128,128,128);fill-opacity:0.5;fill-rule:nonzero;"/>
                        </g>
                        <g transform="matrix(10,0,0,10,183.264,36.3879)">
                            <path d="M0.31,0.015C0.256,0.015 0.209,0.003 0.168,-0.02C0.128,-0.044 0.096,-0.077 0.074,-0.119C0.051,-0.161 0.04,-0.21 0.04,-0.266C0.04,-0.325 0.051,-0.376 0.073,-0.419C0.095,-0.462 0.126,-0.496 0.166,-0.52C0.206,-0.543 0.252,-0.555 0.305,-0.555C0.36,-0.555 0.406,-0.542 0.445,-0.517C0.484,-0.491 0.513,-0.455 0.532,-0.408C0.551,-0.361 0.559,-0.305 0.555,-0.241L0.45,-0.241L0.45,-0.279C0.449,-0.341 0.437,-0.388 0.414,-0.418C0.391,-0.448 0.356,-0.463 0.309,-0.463C0.256,-0.463 0.217,-0.446 0.191,-0.413C0.164,-0.38 0.151,-0.332 0.151,-0.27C0.151,-0.211 0.164,-0.165 0.191,-0.132C0.217,-0.1 0.255,-0.084 0.305,-0.084C0.337,-0.084 0.365,-0.091 0.389,-0.106C0.413,-0.121 0.432,-0.142 0.445,-0.17L0.548,-0.137C0.527,-0.089 0.495,-0.051 0.452,-0.025C0.409,0.002 0.362,0.015 0.31,0.015ZM0.117,-0.241L0.117,-0.322L0.502,-0.322L0.502,-0.241L0.117,-0.241Z" style="fill:rgb(128,128,128);fill-opacity:0.5;fill-rule:nonzero;"/>
                        </g>
                        <g transform="matrix(10,0,0,10,190.229,36.3879)">
                            <rect x="0.08" y="-0.735" width="0.105" height="0.735" style="fill:rgb(128,128,128);fill-opacity:0.5;fill-rule:nonzero;"/>
                        </g>
                        <g transform="matrix(10,0,0,10,192.374,36.3879)">
                            <path d="M0.08,-0.628L0.08,-0.73L0.185,-0.73L0.185,-0.628L0.08,-0.628ZM0.08,-0L0.08,-0.54L0.185,-0.54L0.185,-0L0.08,-0Z" style="fill:rgb(128,128,128);fill-opacity:0.5;fill-rule:nonzero;"/>
                        </g>
                        <g transform="matrix(10,0,0,10,194.519,36.3879)">
                            <path d="M0.324,0.015C0.272,0.015 0.229,0.002 0.194,-0.023C0.159,-0.048 0.132,-0.082 0.114,-0.125C0.096,-0.168 0.087,-0.217 0.087,-0.271C0.087,-0.325 0.096,-0.373 0.114,-0.416C0.132,-0.459 0.158,-0.493 0.193,-0.518C0.228,-0.543 0.271,-0.555 0.322,-0.555C0.372,-0.555 0.416,-0.543 0.453,-0.518C0.49,-0.493 0.518,-0.459 0.538,-0.416C0.558,-0.373 0.568,-0.325 0.568,-0.271C0.568,-0.217 0.558,-0.168 0.538,-0.125C0.518,-0.082 0.49,-0.048 0.454,-0.023C0.417,0.002 0.374,0.015 0.324,0.015ZM0.07,-0L0.07,-0.72L0.174,-0.72L0.174,-0.389L0.163,-0.389L0.163,-0L0.07,-0ZM0.309,-0.08C0.342,-0.08 0.37,-0.088 0.392,-0.105C0.414,-0.122 0.43,-0.145 0.441,-0.174C0.452,-0.203 0.457,-0.235 0.457,-0.271C0.457,-0.306 0.452,-0.338 0.441,-0.367C0.43,-0.395 0.413,-0.418 0.391,-0.435C0.369,-0.452 0.34,-0.461 0.306,-0.461C0.273,-0.461 0.246,-0.453 0.225,-0.437C0.204,-0.421 0.188,-0.398 0.178,-0.37C0.168,-0.341 0.163,-0.308 0.163,-0.271C0.163,-0.233 0.168,-0.2 0.178,-0.172C0.188,-0.143 0.203,-0.12 0.225,-0.104C0.247,-0.088 0.275,-0.08 0.309,-0.08Z" style="fill:rgb(128,128,128);fill-opacity:0.5;fill-rule:nonzero;"/>
                        </g>
                        <g transform="matrix(10,0,0,10,200.099,36.3879)">
                            <path d="M0.07,-0L0.07,-0.54L0.163,-0.54L0.163,-0.409L0.15,-0.426C0.157,-0.443 0.165,-0.459 0.176,-0.474C0.187,-0.488 0.199,-0.5 0.213,-0.509C0.227,-0.52 0.242,-0.527 0.259,-0.533C0.276,-0.538 0.293,-0.542 0.311,-0.543C0.328,-0.544 0.345,-0.543 0.362,-0.54L0.362,-0.442C0.344,-0.447 0.324,-0.448 0.303,-0.446C0.281,-0.444 0.262,-0.437 0.244,-0.426C0.227,-0.414 0.213,-0.401 0.203,-0.386C0.193,-0.37 0.186,-0.352 0.182,-0.333C0.178,-0.314 0.175,-0.294 0.175,-0.273L0.175,-0L0.07,-0Z" style="fill:rgb(128,128,128);fill-opacity:0.5;fill-rule:nonzero;"/>
                        </g>
                        <g transform="matrix(10,0,0,10,203.314,36.3879)">
                            <path d="M0.223,0.015C0.183,0.015 0.149,0.008 0.122,-0.007C0.095,-0.022 0.075,-0.042 0.061,-0.066C0.047,-0.091 0.04,-0.118 0.04,-0.147C0.04,-0.174 0.045,-0.198 0.055,-0.219C0.064,-0.24 0.079,-0.257 0.098,-0.272C0.117,-0.286 0.14,-0.298 0.168,-0.307C0.192,-0.314 0.219,-0.32 0.249,-0.326C0.279,-0.331 0.311,-0.336 0.345,-0.341C0.378,-0.345 0.411,-0.35 0.445,-0.355L0.406,-0.334C0.407,-0.376 0.398,-0.407 0.38,-0.428C0.361,-0.448 0.33,-0.459 0.284,-0.459C0.256,-0.459 0.23,-0.452 0.206,-0.439C0.183,-0.426 0.166,-0.404 0.157,-0.374L0.059,-0.404C0.073,-0.45 0.098,-0.487 0.136,-0.514C0.173,-0.541 0.223,-0.555 0.285,-0.555C0.334,-0.555 0.376,-0.547 0.412,-0.53C0.448,-0.514 0.474,-0.488 0.491,-0.452C0.499,-0.434 0.504,-0.416 0.506,-0.396C0.508,-0.376 0.509,-0.355 0.509,-0.333L0.509,-0L0.417,-0L0.417,-0.124L0.435,-0.108C0.413,-0.066 0.384,-0.035 0.35,-0.015C0.315,0.005 0.273,0.015 0.223,0.015ZM0.241,-0.07C0.271,-0.07 0.296,-0.076 0.318,-0.086C0.339,-0.097 0.356,-0.11 0.369,-0.127C0.382,-0.143 0.391,-0.16 0.395,-0.178C0.4,-0.194 0.403,-0.212 0.404,-0.232C0.405,-0.252 0.406,-0.268 0.406,-0.28L0.44,-0.267C0.406,-0.262 0.377,-0.258 0.349,-0.254C0.323,-0.25 0.298,-0.246 0.276,-0.242C0.254,-0.238 0.235,-0.233 0.218,-0.228C0.204,-0.223 0.191,-0.217 0.18,-0.21C0.169,-0.203 0.16,-0.195 0.153,-0.185C0.147,-0.174 0.143,-0.162 0.143,-0.148C0.143,-0.134 0.147,-0.121 0.154,-0.109C0.161,-0.097 0.172,-0.088 0.186,-0.081C0.2,-0.074 0.219,-0.07 0.241,-0.07Z" style="fill:rgb(128,128,128);fill-opacity:0.5;fill-rule:nonzero;"/>
                        </g>
                        <g transform="matrix(10,0,0,10,208.509,36.3879)">
                            <path d="M0.07,-0L0.07,-0.54L0.163,-0.54L0.163,-0.409L0.15,-0.426C0.157,-0.443 0.165,-0.459 0.176,-0.474C0.187,-0.488 0.199,-0.5 0.213,-0.509C0.227,-0.52 0.242,-0.527 0.259,-0.533C0.276,-0.538 0.293,-0.542 0.311,-0.543C0.328,-0.544 0.345,-0.543 0.362,-0.54L0.362,-0.442C0.344,-0.447 0.324,-0.448 0.303,-0.446C0.281,-0.444 0.262,-0.437 0.244,-0.426C0.227,-0.414 0.213,-0.401 0.203,-0.386C0.193,-0.37 0.186,-0.352 0.182,-0.333C0.178,-0.314 0.175,-0.294 0.175,-0.273L0.175,-0L0.07,-0Z" style="fill:rgb(128,128,128);fill-opacity:0.5;fill-rule:nonzero;"/>
                        </g>
                        <g transform="matrix(10,0,0,10,211.739,36.3879)">
                            <path d="M0.143,0.24L0.248,-0.045L0.249,0.04L0.014,-0.54L0.123,-0.54L0.299,-0.093L0.267,-0.093L0.435,-0.54L0.541,-0.54L0.243,0.24L0.143,0.24Z" style="fill:rgb(128,128,128);fill-opacity:0.5;fill-rule:nonzero;"/>
                        </g>
                    </g>
                </g>
                <g transform="matrix(1,0,0,1,12.571,1.41569)">
                    <g transform="matrix(0.797137,0,0,1.27542,46.9103,-6.8932)">
                        <g transform="matrix(30.1077,0,0,30.1077,16.7465,36.5285)">
                            <path d="M0.115,-0L0.115,-0.538C0.115,-0.552 0.115,-0.567 0.116,-0.585C0.117,-0.602 0.119,-0.619 0.124,-0.637C0.129,-0.655 0.138,-0.671 0.151,-0.685C0.168,-0.704 0.186,-0.716 0.205,-0.723C0.225,-0.73 0.244,-0.734 0.262,-0.734C0.28,-0.735 0.296,-0.735 0.309,-0.735L0.376,-0.735L0.376,-0.625L0.314,-0.625C0.293,-0.625 0.277,-0.62 0.267,-0.609C0.256,-0.598 0.251,-0.585 0.251,-0.57L0.251,-0L0.115,-0ZM0.03,-0.435L0.03,-0.54L0.376,-0.54L0.376,-0.435L0.03,-0.435Z" style="fill:rgb(128,128,128);fill-rule:nonzero;"/>
                        </g>
                        <g transform="matrix(30.1077,0,0,30.1077,26.8627,36.5285)">
                            <path d="M0.281,0.015C0.213,0.015 0.158,-0 0.116,-0.031C0.074,-0.062 0.049,-0.106 0.04,-0.162L0.179,-0.183C0.185,-0.158 0.197,-0.138 0.217,-0.124C0.236,-0.109 0.261,-0.102 0.291,-0.102C0.316,-0.102 0.335,-0.107 0.348,-0.116C0.361,-0.126 0.368,-0.139 0.368,-0.156C0.368,-0.167 0.365,-0.175 0.36,-0.182C0.355,-0.188 0.343,-0.195 0.324,-0.201C0.306,-0.207 0.277,-0.216 0.238,-0.226C0.194,-0.237 0.159,-0.25 0.133,-0.264C0.106,-0.278 0.087,-0.295 0.076,-0.314C0.064,-0.334 0.058,-0.357 0.058,-0.385C0.058,-0.42 0.067,-0.45 0.085,-0.475C0.102,-0.501 0.127,-0.52 0.159,-0.534C0.191,-0.548 0.229,-0.555 0.273,-0.555C0.315,-0.555 0.353,-0.549 0.386,-0.536C0.418,-0.523 0.445,-0.504 0.465,-0.48C0.485,-0.456 0.497,-0.428 0.502,-0.395L0.363,-0.37C0.361,-0.39 0.352,-0.406 0.337,-0.418C0.322,-0.429 0.302,-0.436 0.276,-0.438C0.251,-0.44 0.231,-0.436 0.216,-0.428C0.201,-0.42 0.193,-0.408 0.193,-0.392C0.193,-0.383 0.196,-0.375 0.203,-0.369C0.209,-0.362 0.223,-0.356 0.243,-0.349C0.264,-0.342 0.295,-0.334 0.337,-0.323C0.378,-0.312 0.411,-0.3 0.436,-0.286C0.461,-0.272 0.479,-0.255 0.49,-0.235C0.501,-0.215 0.507,-0.191 0.507,-0.163C0.507,-0.108 0.487,-0.064 0.447,-0.033C0.407,-0.001 0.352,0.015 0.281,0.015Z" style="fill:rgb(128,128,128);fill-rule:nonzero;"/>
                        </g>
                        <g transform="matrix(30.1077,0,0,30.1077,41.8263,36.5285)">
                            <path d="M0.301,0.255C0.27,0.255 0.241,0.25 0.214,0.24C0.186,0.23 0.161,0.217 0.139,0.199C0.117,0.182 0.1,0.161 0.086,0.138L0.212,0.077C0.221,0.093 0.233,0.105 0.249,0.113C0.265,0.122 0.283,0.126 0.302,0.126C0.322,0.126 0.342,0.123 0.36,0.116C0.378,0.109 0.392,0.099 0.403,0.085C0.414,0.072 0.419,0.055 0.418,0.035L0.418,-0.122L0.435,-0.122L0.435,-0.54L0.554,-0.54L0.554,0.037C0.554,0.05 0.553,0.063 0.552,0.075C0.551,0.087 0.549,0.098 0.546,0.11C0.537,0.143 0.521,0.17 0.498,0.191C0.474,0.213 0.446,0.229 0.411,0.239C0.378,0.25 0.341,0.255 0.301,0.255ZM0.289,0.015C0.239,0.015 0.196,0.002 0.159,-0.023C0.121,-0.048 0.092,-0.082 0.071,-0.125C0.05,-0.168 0.04,-0.216 0.04,-0.27C0.04,-0.325 0.051,-0.374 0.072,-0.417C0.093,-0.46 0.123,-0.493 0.161,-0.518C0.199,-0.543 0.244,-0.555 0.296,-0.555C0.347,-0.555 0.391,-0.543 0.426,-0.518C0.461,-0.493 0.487,-0.459 0.505,-0.416C0.523,-0.373 0.532,-0.324 0.532,-0.27C0.532,-0.216 0.523,-0.168 0.505,-0.125C0.487,-0.082 0.46,-0.048 0.424,-0.023C0.388,0.002 0.343,0.015 0.289,0.015ZM0.311,-0.106C0.341,-0.106 0.366,-0.113 0.384,-0.127C0.402,-0.14 0.415,-0.159 0.423,-0.184C0.431,-0.209 0.435,-0.237 0.435,-0.27C0.435,-0.303 0.431,-0.331 0.423,-0.356C0.415,-0.381 0.402,-0.4 0.385,-0.413C0.367,-0.427 0.344,-0.434 0.316,-0.434C0.286,-0.434 0.261,-0.427 0.241,-0.412C0.222,-0.397 0.207,-0.377 0.198,-0.352C0.189,-0.327 0.184,-0.3 0.184,-0.27C0.184,-0.24 0.189,-0.212 0.198,-0.187C0.206,-0.162 0.22,-0.143 0.239,-0.128C0.258,-0.113 0.282,-0.106 0.311,-0.106Z" style="fill:rgb(128,128,128);fill-rule:nonzero;"/>
                        </g>
                        <g transform="matrix(30.1077,0,0,30.1077,59.1081,36.5285)">
                            <path d="M0.294,0.015C0.24,0.015 0.194,0.003 0.156,-0.021C0.118,-0.046 0.09,-0.079 0.07,-0.122C0.051,-0.165 0.041,-0.214 0.04,-0.27C0.041,-0.327 0.051,-0.376 0.071,-0.419C0.091,-0.462 0.12,-0.495 0.158,-0.519C0.195,-0.543 0.241,-0.555 0.295,-0.555C0.349,-0.555 0.397,-0.542 0.437,-0.515C0.478,-0.488 0.505,-0.452 0.521,-0.406L0.449,-0.383C0.436,-0.415 0.416,-0.44 0.388,-0.458C0.361,-0.476 0.329,-0.485 0.294,-0.485C0.254,-0.485 0.222,-0.475 0.196,-0.457C0.17,-0.439 0.15,-0.414 0.138,-0.382C0.125,-0.349 0.118,-0.312 0.118,-0.27C0.119,-0.205 0.134,-0.153 0.163,-0.114C0.192,-0.075 0.236,-0.056 0.294,-0.056C0.331,-0.056 0.362,-0.064 0.388,-0.081C0.414,-0.098 0.433,-0.122 0.447,-0.155L0.521,-0.133C0.5,-0.085 0.471,-0.048 0.433,-0.023C0.394,0.002 0.348,0.015 0.294,0.015Z" style="fill:rgb(128,128,128);fill-opacity:0.5;fill-rule:nonzero;"/>
                        </g>
                        <g transform="matrix(30.1077,0,0,30.1077,73.8158,36.5285)">
                            <path d="M0.296,0.015C0.242,0.015 0.196,0.003 0.158,-0.021C0.12,-0.046 0.091,-0.08 0.07,-0.123C0.05,-0.166 0.04,-0.215 0.04,-0.271C0.04,-0.327 0.05,-0.377 0.071,-0.42C0.092,-0.462 0.121,-0.495 0.159,-0.519C0.197,-0.543 0.243,-0.555 0.296,-0.555C0.349,-0.555 0.396,-0.543 0.434,-0.519C0.472,-0.495 0.501,-0.461 0.521,-0.418C0.541,-0.375 0.552,-0.326 0.552,-0.271C0.552,-0.214 0.541,-0.164 0.521,-0.121C0.501,-0.078 0.471,-0.045 0.433,-0.021C0.395,0.003 0.349,0.015 0.296,0.015ZM0.296,-0.056C0.356,-0.056 0.4,-0.075 0.43,-0.115C0.459,-0.155 0.473,-0.207 0.473,-0.271C0.473,-0.336 0.459,-0.388 0.429,-0.427C0.4,-0.465 0.355,-0.485 0.296,-0.485C0.255,-0.485 0.222,-0.475 0.196,-0.457C0.17,-0.439 0.15,-0.414 0.137,-0.382C0.124,-0.35 0.118,-0.313 0.118,-0.271C0.118,-0.205 0.133,-0.153 0.163,-0.114C0.193,-0.075 0.237,-0.056 0.296,-0.056Z" style="fill:rgb(128,128,128);fill-opacity:0.5;fill-rule:nonzero;"/>
                        </g>
                        <g transform="matrix(30.1077,0,0,30.1077,90.1191,36.5285)">
                            <path d="M0.07,-0L0.07,-0.54L0.136,-0.54L0.136,-0.41L0.123,-0.427C0.129,-0.443 0.137,-0.458 0.147,-0.471C0.156,-0.485 0.167,-0.496 0.178,-0.504C0.192,-0.517 0.208,-0.526 0.227,-0.533C0.246,-0.539 0.265,-0.543 0.283,-0.544C0.303,-0.545 0.32,-0.544 0.336,-0.54L0.336,-0.471C0.316,-0.476 0.294,-0.477 0.271,-0.474C0.248,-0.472 0.226,-0.463 0.206,-0.447C0.189,-0.433 0.175,-0.416 0.166,-0.396C0.157,-0.377 0.151,-0.356 0.148,-0.334C0.145,-0.312 0.143,-0.291 0.143,-0.27L0.143,-0L0.07,-0Z" style="fill:rgb(128,128,128);fill-opacity:0.5;fill-rule:nonzero;"/>
                        </g>
                        <g transform="matrix(30.1077,0,0,30.1077,99.1665,36.5285)">
                            <path d="M0.299,0.015C0.246,0.015 0.2,0.003 0.162,-0.02C0.123,-0.043 0.093,-0.076 0.072,-0.118C0.051,-0.161 0.04,-0.211 0.04,-0.268C0.04,-0.327 0.051,-0.378 0.071,-0.421C0.093,-0.464 0.122,-0.497 0.16,-0.52C0.198,-0.543 0.244,-0.555 0.296,-0.555C0.349,-0.555 0.394,-0.543 0.432,-0.518C0.47,-0.494 0.498,-0.459 0.518,-0.413C0.537,-0.367 0.546,-0.313 0.544,-0.25L0.469,-0.25L0.469,-0.276C0.468,-0.345 0.453,-0.398 0.424,-0.434C0.395,-0.47 0.353,-0.488 0.298,-0.488C0.239,-0.488 0.195,-0.469 0.164,-0.431C0.133,-0.393 0.118,-0.34 0.118,-0.27C0.118,-0.202 0.133,-0.149 0.164,-0.112C0.195,-0.074 0.239,-0.056 0.296,-0.056C0.334,-0.056 0.368,-0.064 0.397,-0.082C0.426,-0.1 0.448,-0.126 0.465,-0.16L0.534,-0.133C0.512,-0.086 0.481,-0.05 0.439,-0.024C0.398,0.002 0.351,0.015 0.299,0.015ZM0.092,-0.25L0.092,-0.311L0.504,-0.311L0.504,-0.25L0.092,-0.25Z" style="fill:rgb(128,128,128);fill-opacity:0.5;fill-rule:nonzero;"/>
                        </g>
                    </g>
                    <g transform="matrix(1,0,0,1,-12.9796,0)">
                        <g transform="matrix(1.25,0,0,2.8528,-279.933,-31.32)">
                            <path d="M267,16.402C267,15.628 266.104,15 265,15C263.896,15 263,15.628 263,16.402L263,23.598C263,24.372 263.896,25 265,25C266.104,25 267,24.372 267,23.598L267,16.402Z" style="fill:rgb(0,221,153);"/>
                        </g>
                        <g transform="matrix(1.25,0,0,1.4264,-272.933,4.34)">
                            <path d="M267,17.804C267,16.257 266.104,15 265,15C263.896,15 263,16.257 263,17.804L263,22.196C263,23.743 263.896,25 265,25C266.104,25 267,23.743 267,22.196L267,17.804Z" style="fill:rgb(255,49,111);"/>
                        </g>
                        <g transform="matrix(1.25,0,0,2.8528,-265.933,-31.32)">
                            <path d="M267,16.402C267,15.628 266.104,15 265,15C263.896,15 263,15.628 263,16.402L263,23.598C263,24.372 263.896,25 265,25C266.104,25 267,24.372 267,23.598L267,16.402Z" style="fill:rgb(70,142,249);"/>
                        </g>
                    </g>
                </g>
            </g>
        </g>
    </g>
</svg>
